Coordinates
version=1
nRows=4
nColumns=107
inDegrees=yes

Units are S.I. units (second, meters, Newtons, ...)
If the header above contains a line with 'inDegrees', this indicates whether rotational values are in degrees (yes) or radians (no).

endheader
time	sternoclavicular_r2	sternoclavicular_r3	unrotscap_r3	unrotscap_r2	acromioclavicular_r2	acromioclavicular_r3	acromioclavicular_r1	unrothum_r1	unrothum_r3	unrothum_r2	elv_angle	shoulder_elv	shoulder1_r2	shoulder_rot	elbow_flexion	pro_sup	deviation	flexion	proximal_distal_r1	proximal_distal_r3	cmc_flexion	cmc_abduction	mp_flexion	ip_flexion	mcp2_flexion	mcp2_abduction	pm2_flexion	md2_flexion	mcp3_flexion	mcp3_abduction	pm3_flexion	md3_flexion	mcp4_flexion	mcp4_abduction	pm4_flexion	md4_flexion	mcp5_flexion	mcp5_abduction	pm5_flexion	md5_flexion	bicpt_tx	bicpt_ty	bicpt_tz	bicpt2_tx	bicpt2_ty	bicpt2_tz	ptpt_tx	ptpt_ty	ptpt_tz	FCUpt_tx	FCUpt_ty	FCUpt_tz	EDCpt_tx	EDCpt_ty	EDCpt_tz	APLpt_tx	APLpt_ty	APLpt_tz	FPLpt_tx	FPLpt_ty	FPLpt_tz	FPLpt2_tx	FPLpt2_ty	FPLpt2_tz	PEC1pt2_tx	PEC1pt2_ty	PEC1pt2_tz	PEC1pt3_tx	PEC1pt3_ty	PEC1pt3_tz	PEC2pt2_tx	PEC2pt2_ty	PEC2pt2_tz	PEC2pt3_tx	PEC2pt3_ty	PEC2pt3_tz	PEC3pt2_tx	PEC3pt2_ty	PEC3pt2_tz	PEC3pt3_tx	PEC3pt3_ty	PEC3pt3_tz	DELT2pt2a_tx	DELT2pt2a_ty	DELT2pt2a_tz	DELT2pt2_tx	DELT2pt2_ty	DELT2pt2_tz	LAT1pt2_tx	LAT1pt2_ty	LAT1pt2_tz	LAT1pt3_tx	LAT1pt3_ty	LAT1pt3_tz	LAT2pt2_tx	LAT2pt2_ty	LAT2pt2_tz	LAT2pt3_tx	LAT2pt3_ty	LAT2pt3_tz	LAT3pt2_tx	LAT3pt2_ty	LAT3pt2_tz	LAT3pt3_tx	LAT3pt3_ty	LAT3pt3_tz
      1.56666667	     -0.34718343	      0.14705051	     -0.14705051	      0.34718343	     -0.07029758	      0.56812033	      0.25536618	     -0.25536618	     -0.56812033	      0.07029758	     91.88135342	     82.19876238	     -1.60363214	     17.70648131	     34.52822105	    -89.41126125	      0.42963491	      0.35108953	      0.43199003	      0.17554477	      9.54187123	    -24.25398317	     -6.65874495	     -4.11448522	     23.14298444	     -7.19587615	     24.35484071	      5.62424684	     21.42148780	    -10.70617529	     26.93711131	     26.26070008	     15.08479169	    -13.82758489	     43.91133911	     29.73744941	     32.77399625	    -14.32777657	      0.20423009	      5.32934161	      0.00104209	     -0.03155746	     -0.00493744	     -0.00282414	     -0.01957976	     -0.00954424	      0.01415648	     -0.06062814	      0.00715256	     -0.00266428	     -0.18380944	      0.00683829	      0.01072933	     -0.00129962	     -0.00346283	     -0.00046243	     -0.00018497	     -0.00092487	     -0.00059192	     -0.00177575	     -0.00099886	      0.00003326	     -0.00018797	     -0.00022556	      0.00269430	      0.00945287	      0.00657591	     -0.00881354	      0.02128036	     -0.02018438	      0.00269430	      0.00945287	      0.00657591	      0.00059366	      0.01972772	     -0.01036619	      0.00416960	      0.00525662	      0.01648336	      0.00000000	      0.00904677	      0.00000000	     -0.00771756	     -0.03566516	     -0.00746571	     -0.01749072	     -0.00127773	     -0.00468978	     -0.00095899	      0.01607444	     -0.00657591	      0.00264863	      0.02319834	     -0.01917973	     -0.00643891	      0.01392814	     -0.00589092	     -0.01342581	      0.02940892	     -0.03292520	     -0.02520764	      0.01557211	     -0.00790022	     -0.01671376	      0.03397552	     -0.04114508
      1.60000000	     -0.34743786	      0.14715828	     -0.14715828	      0.34743786	     -0.07034910	      0.56853668	      0.25555332	     -0.25555332	     -0.56853668	      0.07034910	     91.87493750	     82.25900197	     -1.60352016	     18.37273331	     34.51178149	    -89.38200681	      0.42993172	      0.32955639	      0.43218400	      0.16477819	     10.37645514	    -24.29009402	     -7.16008764	     -3.33859003	     26.37333231	     -7.53231392	     20.67698423	      3.83576789	     27.16113955	    -11.05026487	     20.55107964	     23.08117792	     24.25108065	    -13.93128904	     32.34258382	     27.75853597	     45.59506107	    -14.27305229	    -17.11989622	      5.25172426	      0.00104154	     -0.03155558	     -0.00493714	     -0.00281542	     -0.01957529	     -0.00954642	      0.01415432	     -0.06062954	      0.00715020	     -0.00266251	     -0.18380991	      0.00683523	      0.01072582	     -0.00129960	     -0.00346099	     -0.00042810	     -0.00017124	     -0.00085620	     -0.00054797	     -0.00164390	     -0.00092469	      0.00003220	     -0.00019960	     -0.00023953	      0.00269627	      0.00945979	      0.00658073	     -0.00882000	      0.02129596	     -0.02019917	      0.00269627	      0.00945979	      0.00658073	      0.00059409	      0.01974218	     -0.01037378	      0.00417174	      0.00526047	      0.01648810	      0.00000000	      0.00906015	      0.00000000	     -0.00772321	     -0.03569130	     -0.00747680	     -0.01821429	     -0.00137876	     -0.00503452	     -0.00095969	      0.01608622	     -0.00658073	      0.00265057	      0.02321534	     -0.01919378	     -0.00644363	      0.01393834	     -0.00589523	     -0.01343565	      0.02943047	     -0.03294933	     -0.02522612	      0.01558352	     -0.00790601	     -0.01672601	      0.03400042	     -0.04117524
      1.63333333	     -0.34685277	      0.14691046	     -0.14691046	      0.34685277	     -0.07023063	      0.56757925	      0.25512297	     -0.25512297	     -0.56757925	      0.07023063	     91.81251649	     82.12047697	     -1.60243071	     18.24479228	     34.64544956	    -89.42227270	      0.43011384	      0.34611319	      0.43230295	      0.17305659	     10.53906474	    -24.36210995	     -7.03647601	     -3.32597593	     25.69141626	     -8.23610678	     20.31378224	      3.67314078	     27.20861907	    -11.45077418	     20.22750750	     22.90329324	     24.90509561	    -13.99212286	     32.20314041	     27.94646915	     46.82997474	    -14.26786527	    -17.19114009	      5.27125825	      0.00104596	     -0.03157090	     -0.00493961	     -0.00282742	     -0.01961161	     -0.00954341	      0.01415730	     -0.06062761	      0.00715344	     -0.00266495	     -0.18380926	      0.00683944	      0.01073065	     -0.00129963	     -0.00346352	     -0.00045444	     -0.00018178	     -0.00090888	     -0.00058168	     -0.00174505	     -0.00098159	      0.00003198	     -0.00020177	     -0.00024212	      0.00269173	      0.00944386	      0.00656964	     -0.00880515	      0.02126010	     -0.02016516	      0.00269173	      0.00944386	      0.00656964	      0.00059309	      0.01970893	     -0.01035631	      0.00416680	      0.00525161	      0.01647720	      0.00000000	      0.00902941	      0.00000000	     -0.00771021	     -0.03563119	     -0.00745132	     -0.01807495	     -0.00135907	     -0.00496745	     -0.00095807	      0.01605913	     -0.00656964	      0.00264611	      0.02317624	     -0.01916146	     -0.00643278	      0.01391487	     -0.00588531	     -0.01341302	      0.02938091	     -0.03289384	     -0.02518363	      0.01555728	     -0.00789270	     -0.01669784	      0.03394316	     -0.04110590
      1.66666667	     -0.34649958	      0.14676087	     -0.14676087	      0.34649958	     -0.07015912	      0.56700129	      0.25486318	     -0.25486318	     -0.56700129	      0.07015912	     91.72534662	     82.03685448	     -1.60090931	     18.10155904	     34.90948860	    -89.48246169	      0.43011990	      0.34798917	      0.43230691	      0.17399459	     10.55544936	    -24.41152547	     -7.02707125	     -3.32360019	     25.64800010	     -8.30682048	     20.29967846	      3.66632325	     27.24370867	    -11.49525772	     20.22709176	     22.89821172	     25.01185394	    -14.01002378	     32.22240100	     27.95375111	     46.93865335	    -14.26001658	    -17.16707795	      5.27983863	      0.00105470	     -0.03160116	     -0.00494448	     -0.00284536	     -0.01968333	     -0.00953891	      0.01416174	     -0.06062474	      0.00715829	     -0.00266861	     -0.18380830	      0.00684574	      0.01073787	     -0.00129967	     -0.00346731	     -0.00045745	     -0.00018298	     -0.00091491	     -0.00058554	     -0.00175662	     -0.00098810	      0.00003196	     -0.00020199	     -0.00024239	      0.00268899	      0.00943425	      0.00656295	     -0.00879618	      0.02123845	     -0.02014462	      0.00268899	      0.00943425	      0.00656295	      0.00059249	      0.01968886	     -0.01034577	      0.00416382	      0.00524626	      0.01647060	      0.00000000	      0.00901087	      0.00000000	     -0.00770236	     -0.03559491	     -0.00743596	     -0.01791916	     -0.00133718	     -0.00489283	     -0.00095710	      0.01604278	     -0.00656295	      0.00264341	      0.02315264	     -0.01914195	     -0.00642623	      0.01390070	     -0.00587931	     -0.01339936	      0.02935099	     -0.03286035	     -0.02515799	      0.01554144	     -0.00788466	     -0.01668084	      0.03390860	     -0.04106404
